<svg xmlns="http://www.w3.org/2000/svg" fill-rule="evenodd" viewBox="0 0 100 100">
    <path d="M86.806 11.634H13.194a1.5 1.5 0 0 0-1.5 1.5v73.615a1.5 1.5 0 0 0 1.5 1.5h36.222a1.497 1.497 0 0 0 1.168 0h36.221a1.5 1.5 0 0 0 1.5-1.5V13.134a1.498 1.498 0 0 0-1.499-1.5zm-1.5 73.615H51.5V75.227a1.5 1.5 0 1 0-3 0v10.021H14.694V14.634h70.612v70.615z"/>
    <path d="M37.532 50.471a1.5 1.5 0 0 0 1.396.95H61.35a1.5 1.5 0 0 0 1.405-.976l4.917-13.169c.062-.168.095-.346.095-.525 0-8.088-6.58-14.668-14.668-14.668h-6.197c-8.088 0-14.668 6.58-14.668 14.668 0 .188.036.375.104.55l5.194 13.17zm9.37-25.387h6.197c6.346 0 11.524 5.092 11.665 11.405l-4.455 11.932H51.87l-5.278-16.104a1.5 1.5 0 1 0-2.851.935l4.971 15.17h-8.763l-4.711-11.946c.147-6.307 5.323-11.392 11.664-11.392z"/>
</svg>
