<svg xmlns="http://www.w3.org/2000/svg" fill-rule="evenodd" viewBox="0 0 100 100">
    <path d="M52.761 71.163H37.482a1.5 1.5 0 0 0-1.5 1.5v16.875h-5.345V72.663a1.5 1.5 0 0 0-1.5-1.5H10.123l14.814-14.816a1.499 1.499 0 0 0-1.061-2.56h-9.055l15.162-15.161c.139-.139.25-.306.326-.49l.007-.023c.067-.17.106-.354.106-.547 0-.193-.04-.377-.107-.547l-.007-.023a1.498 1.498 0 0 0-.816-.816l-.023-.007a1.509 1.509 0 0 0-.547-.106h-8.71l13.213-13.212 7.803 7.878a1.5 1.5 0 1 0 2.131-2.111l-8.863-8.95a1.496 1.496 0 0 0-1.062-.444h-.004c-.397 0-.779.158-1.061.439L15.53 36.506a1.499 1.499 0 0 0 1.061 2.561h8.71L10.139 54.228a1.499 1.499 0 0 0 1.061 2.561h9.055L5.441 71.604a1.499 1.499 0 0 0 1.061 2.561h21.135V91.04a1.5 1.5 0 0 0 1.5 1.5h8.345a1.5 1.5 0 0 0 1.5-1.5V74.165h13.779a1.5 1.5 0 1 0 0-3.002z"/>
    <path d="M94.563 60.783 79.578 45.648h9.137c.605 0 1.151-.364 1.385-.922a1.502 1.502 0 0 0-.319-1.633L74.445 27.608h8.78a1.502 1.502 0 0 0 1.066-2.556L67.314 7.909a1.497 1.497 0 0 0-1.062-.445h-.004c-.397 0-.779.158-1.061.439L48.045 25.047a1.499 1.499 0 0 0 1.061 2.561h8.931L42.554 43.089a1.499 1.499 0 0 0 1.061 2.561h9.283L37.772 60.778a1.499 1.499 0 0 0 1.061 2.561h21.545v17.205a1.5 1.5 0 0 0 1.5 1.5h8.491a1.5 1.5 0 0 0 1.5-1.5V63.339h21.629c.605 0 1.151-.364 1.385-.922a1.502 1.502 0 0 0-.32-1.634zm-24.194-.445a1.5 1.5 0 0 0-1.5 1.5v17.205h-5.491V61.838a1.5 1.5 0 0 0-1.5-1.5H42.454L57.58 45.209a1.499 1.499 0 0 0-1.061-2.56h-9.282l15.482-15.481c.139-.139.25-.306.326-.49l.007-.023c.067-.17.106-.354.106-.547 0-.194-.04-.377-.107-.547l-.007-.023a1.504 1.504 0 0 0-.816-.816l-.023-.007a1.488 1.488 0 0 0-.547-.106h-8.932l13.516-13.517L79.627 24.61h-8.771a1.5 1.5 0 0 0-1.5 1.5v.003c0 .184.038.357.099.52.007.02.01.039.018.058.069.163.168.308.286.436.013.014.017.033.031.047l15.326 15.477H75.98a1.502 1.502 0 0 0-1.066 2.556L89.899 60.34h-19.53v-.002z"/>
</svg>
